<svg xmlns="http://www.w3.org/2000/svg" xmlns:xlink="http://www.w3.org/1999/xlink" version="1.1" xml:space="preserve" class="u-svg-content" viewBox="0 0 395.981 395.981" x="0px" y="0px" id="svg-e70c" style="enable-background:new 0 0 395.981 395.981;" width="395.981"  height="395.981" ><g><path d="M266.664,224.239c0-10.154-2.166-19.934-6.438-29.068c-1.755-3.752-6.222-5.372-9.972-3.616   c-3.752,1.755-5.371,6.219-3.616,9.971c3.335,7.13,5.026,14.771,5.026,22.713c0,29.596-24.078,53.674-53.674,53.674   s-53.673-24.078-53.673-53.674s24.077-53.673,53.673-53.673c10.679,0,20.99,3.125,29.82,9.038c3.44,2.305,8.1,1.383,10.404-2.059   s1.383-8.1-2.059-10.405c-11.308-7.572-24.506-11.574-38.166-11.574c-37.866,0-68.673,30.807-68.673,68.673   s30.807,68.674,68.673,68.674C235.857,292.913,266.664,262.106,266.664,224.239z"></path><path d="M197.99,214.07c4.143,0,7.5-3.358,7.5-7.5s-3.357-7.5-7.5-7.5c-13.878,0-25.169,11.291-25.169,25.169   c0,13.879,11.291,25.17,25.169,25.17c13.879,0,25.17-11.291,25.17-25.17c0-4.142-3.357-7.5-7.5-7.5s-7.5,3.358-7.5,7.5   c0,5.608-4.563,10.17-10.17,10.17s-10.169-4.562-10.169-10.17C187.821,218.632,192.383,214.07,197.99,214.07z"></path><path d="M388.481,92.995h-13.669V74.505c0-4.142-3.357-7.5-7.5-7.5h-65.615c-4.143,0-7.5,3.358-7.5,7.5v18.491h-16.82   l-10.463-46.639c-0.769-3.424-3.809-5.858-7.318-5.858h-123.21c-3.51,0-6.55,2.434-7.318,5.858l-10.463,46.639h-42.54V64.497   c0-4.142-3.357-7.5-7.5-7.5H38.565c-4.143,0-7.5,3.358-7.5,7.5v28.498H7.5c-4.143,0-7.5,3.358-7.5,7.5v247.488   c0,4.142,3.357,7.5,7.5,7.5h380.981c4.143,0,7.5-3.358,7.5-7.5V100.495C395.981,96.353,392.624,92.995,388.481,92.995z    M309.197,82.005h50.615v10.991h-50.615V82.005z M46.065,71.997h14.999v20.998H46.065V71.997z M124.608,107.995   c3.51,0,6.55-2.434,7.318-5.858l10.463-46.639h111.202l10.463,46.639c0.769,3.425,3.809,5.858,7.318,5.858h109.608v40.494H263.869   c-17.648-15.368-40.695-24.687-65.878-24.687c-25.183,0-48.23,9.319-65.877,24.687H15v-40.494H124.608z M112.555,224.239   c0-47.109,38.326-85.436,85.436-85.436s85.437,38.327,85.437,85.436c0,47.11-38.327,85.437-85.437,85.437   S112.555,271.349,112.555,224.239z M124.38,292.49H15v-129h103.067c-12.862,16.881-20.512,37.937-20.512,60.75   C97.555,250.569,107.744,274.56,124.38,292.49z M298.427,224.239c0-22.812-7.65-43.869-20.512-60.75h103.067v129h-109.38   C288.238,274.56,298.427,250.569,298.427,224.239z M15,340.483V307.49h126.861c16.035,10.846,35.356,17.186,56.129,17.186   c20.774,0,40.095-6.34,56.13-17.186h126.861v32.994H15z"></path><path d="M150.229,107.995h95.522c2.277,0,4.432-1.035,5.855-2.813c1.423-1.778,1.961-4.106,1.463-6.329l-6.169-27.498   c-0.769-3.424-3.809-5.858-7.318-5.858h-83.185c-3.51,0-6.55,2.434-7.318,5.858l-6.169,27.498c-0.498,2.222,0.04,4.551,1.463,6.329   C145.798,106.96,147.952,107.995,150.229,107.995z M162.402,80.498h71.177l2.804,12.498h-76.784L162.402,80.498z"></path>
</g></svg>