<svg xmlns:xlink="http://www.w3.org/1999/xlink" xmlns="http://www.w3.org/2000/svg" class="u-svg-link" preserveAspectRatio="none" viewBox="0 0 160 60" style="" width="250"  height="94" ><defs><svg xmlns="http://www.w3.org/2000/svg" xmlns:xlink="http://www.w3.org/1999/xlink" version="1.1" xml:space="preserve" class="u-svg-content" viewBox="0 0 160 60" x="0px" y="0px" id="svg-84ce"><path d="M7.3,0C3.3,0,0,3.1,0,6.9s3.3,6.9,7.3,6.9s7.3-3.1,7.3-6.9S11.2,0,7.3,0z M31.5,0c-4,0-7.3,3.1-7.3,6.9s3.3,6.9,7.3,6.9
	s7.3-3.1,7.3-6.9S35.5,0,31.5,0z M55.8,0c-4,0-7.3,3.1-7.3,6.9s3.3,6.9,7.3,6.9S63,10.7,63,6.9S59.7,0,55.8,0z M80,0
	c-4,0-7.3,3.1-7.3,6.9s3.3,6.9,7.3,6.9s7.3-3.1,7.3-6.9S84,0,80,0z M104.2,0c-4,0-7.3,3.1-7.3,6.9s3.3,6.9,7.3,6.9
	c4,0,7.3-3.1,7.3-6.9S108.2,0,104.2,0z M128.5,0c-4,0-7.3,3.1-7.3,6.9s3.3,6.9,7.3,6.9c4,0,7.3-3.1,7.3-6.9S132.5,0,128.5,0z
	 M152.7,0c-4,0-7.3,3.1-7.3,6.9s3.3,6.9,7.3,6.9c4,0,7.3-3.1,7.3-6.9S156.7,0,152.7,0z M7.3,23.1c-4,0-7.3,3.1-7.3,6.9
	s3.3,6.9,7.3,6.9s7.3-3.1,7.3-6.9S11.2,23.1,7.3,23.1z M31.5,23.1c-4,0-7.3,3.1-7.3,6.9s3.3,6.9,7.3,6.9s7.3-3.1,7.3-6.9
	S35.5,23.1,31.5,23.1z M55.8,23.1c-4,0-7.3,3.1-7.3,6.9s3.3,6.9,7.3,6.9S63,33.8,63,30S59.7,23.1,55.8,23.1z M80,23.1
	c-4,0-7.3,3.1-7.3,6.9s3.3,6.9,7.3,6.9s7.3-3.1,7.3-6.9S84,23.1,80,23.1z M104.2,23.1c-4,0-7.3,3.1-7.3,6.9s3.3,6.9,7.3,6.9
	c4,0,7.3-3.1,7.3-6.9S108.2,23.1,104.2,23.1z M128.5,23.1c-4,0-7.3,3.1-7.3,6.9s3.3,6.9,7.3,6.9c4,0,7.3-3.1,7.3-6.9
	S132.5,23.1,128.5,23.1z M152.7,23.1c-4,0-7.3,3.1-7.3,6.9s3.3,6.9,7.3,6.9c4,0,7.3-3.1,7.3-6.9S156.7,23.1,152.7,23.1z M7.3,46.2
	c-4,0-7.3,3.1-7.3,6.9C0,56.9,3.3,60,7.3,60s7.3-3.1,7.3-6.9C14.5,49.3,11.2,46.2,7.3,46.2z M31.5,46.2c-4,0-7.3,3.1-7.3,6.9
	c0,3.8,3.3,6.9,7.3,6.9s7.3-3.1,7.3-6.9C38.8,49.3,35.5,46.2,31.5,46.2z M55.8,46.2c-4,0-7.3,3.1-7.3,6.9c0,3.8,3.3,6.9,7.3,6.9
	s7.3-3.1,7.3-6.9C63,49.3,59.7,46.2,55.8,46.2z M80,46.2c-4,0-7.3,3.1-7.3,6.9c0,3.8,3.3,6.9,7.3,6.9s7.3-3.1,7.3-6.9
	C87.3,49.3,84,46.2,80,46.2z M104.2,46.2c-4,0-7.3,3.1-7.3,6.9c0,3.8,3.3,6.9,7.3,6.9c4,0,7.3-3.1,7.3-6.9
	C111.5,49.3,108.2,46.2,104.2,46.2z M128.5,46.2c-4,0-7.3,3.1-7.3,6.9c0,3.8,3.3,6.9,7.3,6.9c4,0,7.3-3.1,7.3-6.9
	C135.8,49.3,132.5,46.2,128.5,46.2z M152.7,46.2c-4,0-7.3,3.1-7.3,6.9c0,3.8,3.3,6.9,7.3,6.9c4,0,7.3-3.1,7.3-6.9
	C160,49.3,156.7,46.2,152.7,46.2z"></path></svg></defs><use xlink:href="#svg-84ce" fill="#292D33"></use></svg>